<?xml version="1.0" encoding="UTF-8" standalone="no"?>
<svg xmlns:svg="http://www.w3.org/2000/svg" xmlns="http://www.w3.org/2000/svg" version="1.1" width="447.96875" height="424.6875" id="svg3169">
  <defs id="defs3171"/>
  <g transform="translate(-261.72991,-314.30415)" id="layer1">
    <path d="m 581.91741,314.30415 c -34.0023,0 -59.30766,10.9357 -80.6875,29.375 -28.29459,24.42953 -36.09375,60.77394 -36.09375,102.03125 l 0,144.09375 c 0,24.09566 -1.1875,29.17367 -1.1875,41 0,18.01557 11.83266,26.78125 24.96875,26.78125 13.15535,0 25,-8.49603 25,-26.78125 0,-13.13608 -1.1875,-18.99096 -1.1875,-41 l 0,-144.09375 c 0,-29.79053 3.16906,-52.04775 18.9375,-66.5 13.06546,-11.96116 28.77385,-18.96875 50.25,-18.96875 42.23963,0 74.875,31.08329 74.875,71.28125 0,48.02439 -34.85452,71.5625 -73.78125,71.5625 -12.55182,0 -11.67001,-0.59375 -21.75,-0.59375 -14.29818,0 -25.3125,9.83881 -25.3125,24.15625 0,15.4731 11.01432,24.75 25.3125,24.75 7.37701,0 10.75806,-1.1875 22.9375,-1.1875 47.60065,0 77.3125,27.89727 77.3125,72.75 0,42.28455 -32.26438,70.09375 -72.46875,70.09375 -23.49856,0 -38.10509,-7.7233 -49.21875,-16.0312 -4.87306,-3.6597 -10.36253,-5.8126 -16.25,-5.8126 -12.66098,0 -21.6875,9.3442 -21.6875,22.2813 0,8.6996 5.79837,17.5811 12.21875,22.5313 16.7636,12.8856 43.56756,22.9687 74.9375,22.9687 64.12027,0 120.65625,-46.6533 120.65625,-117.1875 0,-52.58286 -28.02127,-83.68486 -52.65625,-96.03125 28.81464,-18.42005 47.34375,-52.89304 47.34375,-94.84375 0,-66.52791 -52.57015,-116.625 -122.46875,-116.625 z m -195.96875,1.1875 c -70.64979,0 -121.84375,49.50335 -121.84375,116.03125 0,48.02439 19.26138,76.8667 46.625,94.84375 -31.17091,20.15996 -49,53.80446 -49,96.03125 0,69.09605 49.66814,116.59375 122.46875,116.59375 33.98302,0 61.12983,-10.6768 77.90625,-23.5625 6.42037,-4.9501 12.1875,-13.8509 12.1875,-22.5312 0,-12.9371 -9.01454,-22.2813 -21.65625,-22.2813 -4.55846,0 -10.16906,1.5806 -16.28125,5.8437 -13.45069,9.3481 -30.94334,16.5938 -52.15625,16.5938 -47.37594,0 -74.28125,-28.3781 -74.28125,-70.65625 0,-45.28289 34.60084,-72.78125 77.90625,-72.78125 14.42658,0 19.45344,1.78125 29.6875,1.78125 14.33028,0 24.75,-10.43258 24.75,-24.75 0,-14.31101 -10.41972,-24.15625 -24.75,-24.15625 -10.23406,0 -17.78412,1.1875 -29.6875,1.1875 -45.91851,0 -75.53125,-29.82031 -75.53125,-72.15625 0,-40.19154 31.44871,-70.09375 73.65625,-70.09375 15.41531,0 27.52895,4.4148 39.15625,10.6875 5.05925,2.72866 10.6971,4.59375 15.28125,4.59375 12.91779,0 22.65625,-9.87545 22.65625,-22.8125 0,-8.69319 -5.36265,-16.39699 -12.1875,-20.75 -16.4811,-10.56794 -38.19108,-17.65625 -64.90625,-17.65625 z" id="path132" style="fill:#00eb00;fill-opacity:1;fill-rule:nonzero;stroke:none"/>
  </g>
</svg>